<svg xmlns="http://www.w3.org/2000/svg" xmlns:xlink="http://www.w3.org/1999/xlink" width="1366" zoomAndPan="magnify" viewBox="0 0 1024.5 580.499983" height="768" preserveAspectRatio="xMidYMid meet" version="1.0"><defs><g/><clipPath id="287db569b3"><path d="M 0.191406 0 L 1023.808594 0 L 1023.808594 580 L 0.191406 580 Z M 0.191406 0 " clip-rule="nonzero"/></clipPath></defs><g clip-path="url(#287db569b3)"><path fill="#ffffff" d="M 0.191406 0 L 1024.308594 0 L 1024.308594 587.03125 L 0.191406 587.03125 Z M 0.191406 0 " fill-opacity="1" fill-rule="nonzero"/><path fill="#ffffff" d="M 0.191406 0 L 1024.308594 0 L 1024.308594 580.285156 L 0.191406 580.285156 Z M 0.191406 0 " fill-opacity="1" fill-rule="nonzero"/><path fill="#ffffff" d="M 0.191406 0 L 1024.308594 0 L 1024.308594 580.285156 L 0.191406 580.285156 Z M 0.191406 0 " fill-opacity="1" fill-rule="nonzero"/></g><g fill="#ffffff" fill-opacity="1"><g transform="translate(285.745597, 287.185382)"><g><path d="M 23.214844 4.644531 C 35.050781 4.644531 45.960938 -3.019531 51.300781 -13.464844 C 52.695312 -15.785156 53.621094 -18.339844 54.085938 -21.125 C 55.710938 -27.390625 55.246094 -32.730469 54.550781 -39 C 53.855469 -46.195312 52.230469 -53.160156 50.140625 -59.890625 L 49.445312 -62.210938 L 74.980469 -68.710938 L 76.371094 -69.40625 C 76.605469 -69.640625 77.066406 -70.800781 76.371094 -71.03125 C 75.675781 -71.265625 75.210938 -71.496094 74.980469 -71.496094 C 74.515625 -71.730469 73.816406 -71.730469 72.890625 -71.730469 C 71.265625 -71.730469 69.640625 -71.265625 68.015625 -71.03125 C 61.515625 -69.40625 54.550781 -68.015625 47.820312 -66.390625 C 46.195312 -71.03125 44.570312 -75.675781 42.710938 -80.316406 C 39.925781 -87.746094 37.835938 -95.175781 35.75 -102.835938 C 34.125 -108.636719 33.660156 -114.441406 34.355469 -120.710938 C 35.285156 -132.78125 42.945312 -142.066406 55.710938 -142.761719 C 60.355469 -142.761719 63.140625 -136.957031 63.371094 -133.011719 C 63.605469 -128.601562 62.445312 -124.421875 60.355469 -120.246094 L 58.035156 -116.066406 C 57.800781 -115.371094 58.035156 -114.671875 58.730469 -114.210938 C 59.425781 -113.746094 60.121094 -113.511719 60.820312 -113.511719 C 61.050781 -113.511719 61.515625 -113.746094 62.210938 -113.976562 C 65.925781 -116.761719 67.78125 -120.246094 69.40625 -124.65625 C 71.730469 -131.851562 70.335938 -137.65625 64.996094 -142.53125 C 60.585938 -146.242188 55.015625 -148.101562 49.445312 -148.101562 C 37.375 -148.101562 28.785156 -141.367188 25.300781 -129.53125 C 23.445312 -123.726562 23.214844 -117.460938 24.375 -111.191406 C 26.464844 -98.886719 30.875 -86.585938 35.515625 -74.746094 C 36.675781 -71.265625 37.835938 -67.78125 38.765625 -64.070312 C 21.355469 -59.65625 6.035156 -53.160156 -1.160156 -38.535156 C -2.785156 -34.125 -3.714844 -29.714844 -3.480469 -25.765625 C -3.25 -19.964844 -1.855469 -14.390625 0.230469 -9.285156 C 5.570312 0.695312 11.375 4.644531 23.214844 4.644531 Z M 20.890625 0.929688 C 14.160156 0.929688 9.515625 -5.804688 6.964844 -11.375 C 5.804688 -14.390625 5.105469 -17.179688 4.410156 -20.660156 C 3.25 -26 3.945312 -30.875 5.804688 -35.75 C 11.839844 -49.675781 22.050781 -54.320312 40.160156 -59.65625 C 42.015625 -51.535156 43.175781 -44.335938 43.875 -36.210938 C 44.105469 -32.5 43.875 -29.945312 43.640625 -27.160156 C 42.945312 -15.320312 34.585938 -3.019531 23.675781 0.464844 C 22.515625 0.695312 21.589844 0.929688 20.890625 0.929688 Z M 20.890625 0.929688 "/></g></g></g><g fill="#ffffff" fill-opacity="1"><g transform="translate(332.632949, 287.185382)"><g><path d="M 36.910156 -22.050781 C 39.230469 -22.050781 41.320312 -22.980469 43.410156 -24.839844 C 45.265625 -26.464844 46.890625 -28.089844 48.515625 -29.945312 C 50.835938 -32.960938 53.160156 -36.445312 55.710938 -39.925781 L 65.460938 -55.246094 C 66.621094 -56.871094 67.550781 -58.730469 68.710938 -60.585938 C 69.640625 -62.445312 70.570312 -64.300781 71.730469 -66.15625 C 72.425781 -67.320312 72.65625 -68.480469 72.890625 -69.175781 C 72.890625 -69.175781 72.890625 -69.40625 72.890625 -70.105469 C 72.65625 -71.265625 71.730469 -71.730469 70.105469 -71.730469 C 69.40625 -71.730469 68.945312 -71.496094 68.710938 -71.03125 C 67.78125 -70.105469 67.085938 -68.945312 66.621094 -67.78125 C 61.746094 -58.496094 49.210938 -38.765625 41.785156 -31.339844 C 41.085938 -30.640625 40.390625 -30.175781 39.695312 -29.714844 C 39 -29.015625 38.300781 -28.550781 37.375 -28.089844 C 37.140625 -28.089844 37.140625 -28.089844 37.140625 -28.089844 C 37.140625 -27.855469 37.140625 -27.855469 36.910156 -27.855469 C 36.210938 -27.855469 35.75 -28.320312 35.285156 -29.015625 C 34.585938 -31.570312 35.285156 -34.125 35.515625 -36.675781 C 37.140625 -44.335938 38.535156 -51.535156 41.320312 -58.730469 C 43.175781 -63.140625 45.035156 -67.550781 46.660156 -71.960938 C 47.820312 -73.585938 51.535156 -84.03125 51.535156 -85.191406 C 51.765625 -86.351562 51.300781 -87.050781 50.371094 -87.515625 C 49.675781 -88.210938 48.980469 -88.441406 48.050781 -88.441406 C 46.890625 -88.441406 45.960938 -87.976562 45.265625 -86.816406 C 44.335938 -85.191406 43.410156 -84.03125 42.480469 -82.871094 L 35.515625 -72.890625 C 34.820312 -72.195312 34.355469 -71.730469 33.890625 -71.496094 C 33.890625 -71.496094 33.660156 -71.496094 32.960938 -71.496094 L 31.800781 -74.050781 C 29.015625 -78.460938 25.070312 -80.550781 20.195312 -80.550781 C 17.179688 -80.550781 14.160156 -79.621094 11.375 -77.53125 C 9.515625 -75.90625 7.890625 -74.28125 6.269531 -71.730469 C 5.339844 -70.105469 4.410156 -68.710938 3.480469 -67.320312 C 2.554688 -65.695312 1.625 -64.070312 0.695312 -62.445312 C -2.089844 -57.105469 -3.480469 -51.300781 -3.480469 -45.035156 C -2.785156 -39.460938 1.394531 -36.445312 6.730469 -35.75 L 8.125 -35.75 C 9.75 -35.75 11.140625 -36.210938 12.070312 -36.910156 C 16.480469 -40.625 19.964844 -44.105469 23.675781 -48.515625 C 24.375 -49.210938 24.839844 -49.675781 25.535156 -50.371094 L 26 -50.371094 C 26.464844 -49.910156 26.695312 -49.675781 26.695312 -49.675781 C 26.695312 -49.445312 26.695312 -48.980469 26.695312 -48.746094 C 26.464844 -48.285156 26.464844 -47.820312 26.464844 -47.585938 C 26.230469 -45.730469 25.765625 -43.875 25.535156 -42.015625 C 25.070312 -40.160156 24.839844 -38.300781 24.605469 -36.210938 C 24.605469 -29.015625 28.785156 -22.050781 36.910156 -22.050781 Z M 8.125 -43.640625 C 7.429688 -43.875 7.195312 -44.800781 7.195312 -45.960938 C 8.355469 -54.320312 16.945312 -76.140625 24.375 -76.140625 C 25.300781 -76.140625 26 -75.675781 26.464844 -74.746094 C 27.160156 -73.816406 27.390625 -73.121094 27.625 -72.65625 C 27.855469 -71.03125 28.785156 -69.871094 30.640625 -69.175781 C 31.339844 -68.945312 31.570312 -68.246094 31.339844 -67.320312 C 31.339844 -67.320312 31.105469 -67.085938 30.875 -66.855469 C 25.535156 -59.65625 20.425781 -53.390625 13.929688 -47.121094 C 13.230469 -46.425781 12.535156 -45.960938 11.839844 -45.5 C 11.140625 -45.035156 10.214844 -44.570312 9.515625 -43.875 C 9.285156 -43.640625 8.820312 -43.640625 8.125 -43.640625 Z M 8.125 -43.640625 "/></g></g></g><g fill="#ffffff" fill-opacity="1"><g transform="translate(375.806333, 287.185382)"><g><path d="M 54.550781 -13.929688 C 56.175781 -13.929688 57.335938 -14.390625 58.265625 -15.554688 C 59.890625 -17.179688 61.050781 -19.035156 62.210938 -20.890625 C 65.695312 -26.230469 68.480469 -31.800781 71.496094 -37.605469 C 74.050781 -42.25 76.371094 -46.890625 78.691406 -51.765625 C 81.015625 -56.410156 83.335938 -61.050781 85.65625 -65.695312 C 85.890625 -66.15625 86.351562 -66.621094 86.585938 -67.320312 C 86.816406 -67.78125 87.050781 -68.246094 87.28125 -68.710938 L 87.515625 -69.640625 C 87.976562 -70.570312 87.746094 -71.265625 86.585938 -71.960938 C 86.121094 -72.195312 85.425781 -72.425781 84.730469 -72.425781 C 83.800781 -72.425781 82.871094 -71.960938 82.175781 -71.03125 L 79.855469 -66.855469 C 76.835938 -61.050781 73.816406 -55.480469 70.800781 -49.210938 C 66.855469 -41.550781 62.90625 -33.890625 58.035156 -26.464844 C 57.335938 -25.535156 56.871094 -24.605469 56.175781 -23.910156 C 55.710938 -23.445312 55.246094 -23.214844 54.785156 -23.445312 C 54.320312 -23.445312 54.085938 -23.675781 54.085938 -24.140625 C 54.085938 -25.070312 54.085938 -26 54.085938 -26.925781 C 54.085938 -27.625 54.085938 -28.550781 54.320312 -29.25 C 54.785156 -31.339844 55.246094 -33.660156 55.710938 -35.980469 C 55.945312 -38.070312 56.410156 -40.390625 57.105469 -42.480469 C 58.265625 -47.585938 59.65625 -52.695312 61.28125 -57.800781 C 62.675781 -62.90625 64.070312 -68.015625 65.460938 -73.121094 C 65.695312 -74.515625 66.15625 -75.90625 66.621094 -77.53125 C 67.085938 -78.925781 67.550781 -80.316406 67.78125 -81.941406 C 68.480469 -84.265625 68.710938 -86.816406 68.710938 -89.601562 C 68.480469 -92.390625 65.230469 -94.476562 62.675781 -94.476562 C 59.890625 -94.476562 56.175781 -90.765625 54.550781 -88.675781 C 49.210938 -83.105469 44.800781 -76.835938 40.855469 -70.570312 L 36.910156 -64.53125 C 36.210938 -63.835938 35.75 -63.140625 35.515625 -62.90625 C 35.515625 -62.675781 35.285156 -62.675781 34.585938 -62.675781 L 34.355469 -63.140625 L 34.355469 -71.496094 C 34.125 -74.28125 31.105469 -76.140625 28.550781 -76.140625 C 27.390625 -76.140625 26.230469 -75.441406 25.300781 -74.28125 L 21.820312 -70.105469 L 13.464844 -57.335938 L 13 -57.335938 C 12.765625 -57.335938 12.765625 -57.335938 12.535156 -57.570312 C 11.839844 -59.425781 12.304688 -60.820312 13 -62.445312 C 14.160156 -67.78125 15.320312 -72.65625 16.25 -77.996094 C 16.714844 -79.855469 16.945312 -81.710938 16.945312 -83.800781 C 17.179688 -85.425781 16.25 -86.351562 14.625 -87.050781 C 14.390625 -87.28125 13.929688 -87.28125 13.230469 -87.28125 C 12.070312 -87.28125 11.375 -86.816406 11.140625 -85.65625 C 10.445312 -84.265625 9.980469 -82.871094 9.515625 -81.480469 C 9.054688 -79.855469 8.589844 -78.460938 7.890625 -77.066406 C 5.339844 -68.945312 3.945312 -61.28125 2.320312 -53.160156 C 2.320312 -52.460938 2.320312 -51.765625 2.320312 -51.070312 C 2.089844 -50.371094 2.089844 -49.445312 2.320312 -48.746094 C 2.554688 -46.195312 3.714844 -44.570312 5.804688 -43.640625 C 6.035156 -43.410156 6.5 -43.410156 6.730469 -43.410156 C 6.964844 -43.410156 7.195312 -43.410156 7.429688 -43.175781 C 7.890625 -42.945312 8.589844 -42.945312 9.285156 -42.945312 C 10.445312 -42.945312 11.375 -43.410156 12.304688 -44.570312 C 13 -45.265625 13.464844 -46.195312 13.929688 -47.121094 C 14.390625 -47.820312 14.855469 -48.746094 15.554688 -49.675781 C 16.480469 -51.300781 17.410156 -53.160156 18.339844 -54.785156 C 19.035156 -56.410156 19.964844 -58.035156 20.890625 -59.65625 C 21.355469 -60.355469 21.820312 -61.28125 22.515625 -61.980469 C 22.980469 -62.675781 23.445312 -63.371094 23.910156 -64.070312 C 24.140625 -64.300781 24.140625 -64.300781 24.375 -64.300781 C 24.839844 -64.070312 25.070312 -63.835938 25.070312 -63.605469 C 25.070312 -61.980469 24.839844 -60.820312 24.605469 -59.195312 L 23.910156 -53.855469 C 23.675781 -50.835938 24.839844 -48.980469 27.625 -47.820312 C 27.855469 -47.585938 28.320312 -47.585938 28.785156 -47.355469 C 29.25 -47.121094 29.714844 -47.121094 30.175781 -46.890625 L 31.105469 -46.890625 C 34.125 -46.890625 35.75 -49.910156 37.375 -52.460938 L 43.410156 -62.90625 C 45.265625 -66.855469 53.390625 -80.78125 57.105469 -83.105469 C 58.035156 -83.335938 58.265625 -83.105469 57.800781 -82.40625 C 57.570312 -81.710938 57.335938 -81.015625 57.335938 -80.316406 C 57.105469 -79.621094 56.871094 -78.925781 56.640625 -78.230469 C 50.371094 -62.445312 45.730469 -45.960938 44.105469 -29.25 C 43.640625 -26.464844 43.875 -23.675781 44.570312 -20.660156 C 45.035156 -18.105469 46.660156 -16.015625 49.210938 -14.855469 C 50.835938 -13.929688 52.695312 -13.929688 54.550781 -13.929688 Z M 54.550781 -13.929688 "/></g></g></g><g fill="#421711" fill-opacity="1"><g transform="translate(433.817477, 287.185382)"><g><path d="M 76.835938 6.5 C 85.890625 6.5 92.851562 1.160156 97.265625 -6.5 L 100.050781 -12.535156 C 104.925781 -24.375 108.175781 -36.445312 109.800781 -49.210938 C 110.496094 -53.855469 111.191406 -58.496094 111.65625 -63.140625 C 112.121094 -67.78125 112.816406 -72.425781 113.511719 -76.835938 C 115.136719 -86.816406 115.601562 -96.800781 115.371094 -106.78125 C 115.371094 -110.03125 115.136719 -113.046875 114.671875 -116.066406 C 114.441406 -118.851562 114.210938 -121.40625 113.511719 -124.191406 C 112.816406 -128.832031 112.816406 -128.601562 116.761719 -130.226562 C 120.710938 -131.621094 124.191406 -133.476562 127.441406 -135.796875 C 132.082031 -139.046875 136.726562 -142.53125 141.367188 -146.242188 C 142.296875 -146.941406 143.226562 -147.636719 143.921875 -148.332031 C 145.546875 -149.957031 145.316406 -151.816406 142.761719 -152.511719 C 141.832031 -152.742188 141.136719 -152.976562 140.90625 -152.976562 C 140.207031 -152.976562 139.511719 -152.742188 138.816406 -152.046875 C 138.582031 -151.816406 138.121094 -151.582031 137.886719 -151.351562 C 137.421875 -151.117188 136.957031 -150.65625 136.726562 -150.421875 C 130.226562 -144.851562 123.03125 -139.046875 115.371094 -135.332031 C 114.210938 -134.636719 113.28125 -134.171875 112.585938 -134.171875 C 111.886719 -134.171875 110.960938 -135.101562 110.03125 -136.726562 C 109.800781 -137.65625 109.335938 -138.351562 108.636719 -139.046875 C 105.851562 -142.992188 102.371094 -144.386719 97.496094 -144.386719 C 93.085938 -144.15625 90.765625 -140.441406 92.390625 -136.726562 C 93.316406 -133.707031 95.175781 -131.621094 98.191406 -130.457031 C 100.050781 -129.53125 102.136719 -128.832031 104.226562 -128.371094 C 105.621094 -127.90625 106.316406 -127.207031 106.550781 -126.046875 L 107.246094 -123.03125 C 108.175781 -116.53125 108.40625 -109.800781 108.40625 -100.511719 C 108.636719 -95.175781 107.710938 -87.515625 106.78125 -79.390625 C 105.621094 -68.945312 104.460938 -58.496094 102.835938 -48.050781 C 100.746094 -34.125 95.175781 -7.195312 82.871094 0.929688 C 81.710938 1.625 80.550781 2.089844 79.621094 2.089844 C 75.675781 2.089844 70.800781 -6.035156 69.40625 -9.515625 C 68.480469 -11.605469 67.78125 -13.695312 67.320312 -16.25 C 65.695312 -24.605469 64.53125 -33.195312 65.230469 -41.785156 C 65.460938 -52.230469 66.15625 -62.445312 68.246094 -72.65625 C 69.871094 -79.390625 71.03125 -85.890625 72.195312 -93.085938 C 73.121094 -97.726562 73.816406 -102.371094 74.515625 -107.011719 C 74.746094 -108.175781 74.980469 -109.101562 74.980469 -110.261719 C 74.746094 -111.425781 74.746094 -112.351562 74.746094 -113.511719 C 74.515625 -115.136719 74.050781 -116.53125 72.890625 -117.460938 C 71.265625 -118.621094 69.871094 -119.085938 68.480469 -119.085938 C 66.855469 -119.085938 65.230469 -118.15625 64.070312 -116.53125 L 62.445312 -113.746094 C 61.28125 -111.65625 60.121094 -109.566406 58.960938 -107.011719 C 53.621094 -95.640625 48.980469 -84.496094 44.570312 -72.65625 C 38.070312 -54.785156 31.339844 -37.835938 21.125 -21.820312 C 20.195312 -19.964844 18.804688 -18.570312 17.640625 -16.945312 C 17.410156 -16.25 16.945312 -16.015625 16.480469 -16.015625 C 16.25 -15.785156 15.785156 -15.785156 15.320312 -16.015625 C 14.855469 -16.714844 14.625 -17.640625 14.390625 -18.339844 C 14.160156 -19.035156 13.929688 -19.964844 13.695312 -20.660156 C 12.765625 -25.300781 12.304688 -29.945312 12.304688 -34.585938 C 12.304688 -39.230469 12.535156 -43.875 13.230469 -48.285156 C 16.714844 -74.28125 30.875 -106.085938 46.890625 -126.28125 C 48.980469 -128.832031 51.070312 -131.386719 52.925781 -134.171875 C 54.085938 -135.566406 55.015625 -136.957031 55.945312 -138.582031 C 56.871094 -140.207031 57.800781 -141.601562 58.960938 -143.226562 C 59.195312 -143.457031 59.425781 -143.921875 59.65625 -144.386719 C 59.65625 -144.851562 59.890625 -145.316406 60.121094 -145.546875 C 60.355469 -146.941406 60.121094 -147.867188 59.195312 -148.566406 C 57.570312 -150.191406 55.710938 -150.65625 53.160156 -150.886719 C 51.996094 -150.886719 50.835938 -150.65625 49.675781 -150.421875 C 48.515625 -150.191406 47.355469 -149.726562 46.195312 -149.492188 C 26 -144.851562 7.890625 -134.871094 -2.089844 -116.296875 L -3.480469 -113.28125 C -3.714844 -111.65625 -3.25 -110.726562 -1.855469 -110.261719 L -0.230469 -109.566406 C 0.929688 -109.566406 1.855469 -110.03125 2.089844 -110.726562 C 4.875 -116.066406 8.589844 -120.476562 13 -124.886719 C 17.640625 -130.691406 32.035156 -138.351562 39 -140.671875 C 40.160156 -141.367188 41.320312 -142.066406 42.945312 -142.066406 C 43.410156 -142.066406 43.875 -142.066406 44.105469 -141.832031 C 44.335938 -140.671875 44.105469 -139.742188 43.410156 -139.046875 C 42.710938 -138.351562 42.015625 -137.65625 41.550781 -136.957031 C 40.160156 -135.101562 38.765625 -133.246094 37.375 -131.621094 C 35.75 -129.761719 34.355469 -127.90625 33.195312 -126.046875 C 19.265625 -107.710938 9.980469 -85.425781 4.644531 -63.371094 C 2.089844 -53.390625 0.929688 -43.640625 1.160156 -33.660156 C 1.394531 -28.785156 2.089844 -24.140625 3.25 -19.5 C 5.339844 -12.765625 7.660156 -8.589844 15.320312 -8.589844 C 18.570312 -8.589844 20.890625 -9.75 22.515625 -12.070312 C 31.105469 -21.820312 43.640625 -51.996094 47.820312 -63.835938 C 48.515625 -65.925781 49.445312 -67.78125 50.140625 -69.871094 C 50.835938 -71.730469 51.535156 -73.585938 52.230469 -75.675781 C 54.320312 -81.246094 56.640625 -86.816406 58.730469 -92.390625 L 59.425781 -93.78125 C 59.65625 -94.015625 60.121094 -94.476562 60.355469 -94.710938 C 60.585938 -94.941406 60.585938 -94.710938 60.585938 -94.476562 C 60.820312 -94.246094 61.050781 -93.78125 61.050781 -93.550781 C 60.355469 -89.601562 59.65625 -85.65625 58.730469 -81.710938 C 56.175781 -71.730469 54.785156 -61.746094 54.550781 -51.535156 C 54.320312 -50.835938 54.320312 -49.910156 54.320312 -49.210938 C 54.320312 -48.285156 54.320312 -47.355469 54.085938 -46.660156 C 53.390625 -39.925781 53.621094 -33.195312 54.550781 -26 C 55.480469 -20.660156 56.175781 -15.785156 57.800781 -10.445312 C 59.425781 -5.105469 62.445312 -0.695312 67.085938 3.25 C 68.945312 5.105469 70.800781 6.035156 72.890625 6.269531 C 73.585938 6.5 74.28125 6.5 74.980469 6.5 C 75.675781 6.5 76.140625 6.5 76.835938 6.5 Z M 102.601562 -132.082031 L 101.675781 -132.316406 C 98.886719 -133.246094 97.726562 -136.957031 99.585938 -139.511719 C 99.816406 -139.742188 99.816406 -139.742188 100.050781 -139.976562 C 100.28125 -139.976562 100.511719 -140.207031 100.746094 -140.441406 L 102.371094 -139.742188 C 103.066406 -139.046875 103.53125 -138.121094 103.761719 -137.421875 C 103.996094 -136.496094 104.226562 -135.566406 104.460938 -134.871094 C 104.925781 -133.707031 104.925781 -132.78125 104.226562 -132.546875 C 103.53125 -132.316406 103.066406 -132.082031 102.601562 -132.082031 Z M 102.601562 -132.082031 "/></g></g></g><g fill="#421711" fill-opacity="1"><g transform="translate(540.360447, 287.185382)"><g><path d="M 6.035156 -26.230469 C 9.054688 -26.230469 11.839844 -28.320312 13.929688 -30.175781 C 18.339844 -34.820312 22.285156 -39.695312 25.765625 -45.035156 C 27.855469 -48.515625 29.945312 -51.996094 32.035156 -55.480469 C 34.125 -58.730469 36.210938 -61.980469 38.300781 -65.460938 L 40.160156 -68.945312 C 40.855469 -69.871094 39.695312 -71.265625 38.535156 -71.496094 C 38.300781 -71.730469 37.835938 -71.730469 37.140625 -71.730469 C 36.210938 -71.730469 35.285156 -71.265625 34.355469 -70.105469 C 33.660156 -69.175781 33.195312 -68.246094 32.730469 -67.550781 C 32.265625 -66.621094 31.800781 -65.695312 31.105469 -64.996094 L 22.515625 -50.371094 L 17.179688 -42.710938 C 15.320312 -40.160156 13 -38.070312 10.445312 -35.515625 C 10.214844 -35.285156 9.980469 -35.285156 9.75 -35.050781 C 9.515625 -34.820312 9.285156 -34.820312 9.054688 -34.585938 C 8.820312 -34.355469 8.589844 -34.355469 8.125 -34.355469 C 7.429688 -34.585938 7.195312 -34.820312 7.195312 -35.515625 C 7.429688 -37.605469 7.660156 -39.460938 7.890625 -41.320312 C 8.125 -43.175781 8.355469 -45.035156 8.589844 -46.890625 C 9.75 -53.160156 11.140625 -58.730469 12.765625 -64.996094 L 14.160156 -70.800781 C 14.390625 -72.195312 14.160156 -73.121094 13 -73.585938 C 11.839844 -74.28125 11.140625 -74.515625 11.140625 -74.515625 L 10.445312 -74.515625 C 8.589844 -74.515625 7.660156 -73.121094 6.964844 -71.496094 C 1.160156 -60.355469 -1.625 -48.746094 -1.625 -36.910156 C -1.625 -35.980469 -1.625 -35.050781 -1.625 -34.125 C -1.625 -33.195312 -1.394531 -32.265625 -1.160156 -31.570312 C -0.464844 -28.089844 2.554688 -26.230469 6.035156 -26.230469 Z M 16.480469 -87.050781 C 17.179688 -87.050781 17.875 -87.050781 18.105469 -87.050781 C 18.339844 -87.050781 18.804688 -87.28125 19.5 -87.515625 C 21.125 -88.675781 21.820312 -91.691406 20.660156 -93.316406 C 19.964844 -94.015625 19.265625 -94.941406 18.570312 -96.101562 C 17.640625 -97.265625 16.480469 -97.726562 15.320312 -97.726562 C 14.160156 -97.726562 13.230469 -97.265625 12.765625 -96.335938 C 12.070312 -94.941406 11.839844 -93.316406 11.839844 -91.460938 C 11.839844 -89.835938 12.535156 -88.441406 14.160156 -87.746094 C 14.625 -87.515625 15.089844 -87.28125 15.554688 -87.28125 C 15.785156 -87.28125 16.25 -87.28125 16.480469 -87.050781 Z M 16.480469 -87.050781 "/></g></g></g><g fill="#421711" fill-opacity="1"><g transform="translate(551.0366, 287.185382)"><g><path d="M 8.589844 -22.285156 C 13 -22.285156 16.015625 -25.070312 18.804688 -27.855469 C 22.515625 -31.339844 25.535156 -35.050781 29.015625 -39.460938 L 48.050781 -64.765625 C 48.515625 -65.460938 48.980469 -65.925781 49.445312 -66.621094 C 49.910156 -67.320312 50.371094 -68.015625 50.835938 -68.710938 L 51.535156 -70.105469 C 51.765625 -70.800781 51.300781 -71.730469 50.605469 -71.960938 C 50.371094 -72.195312 49.675781 -72.195312 48.980469 -72.195312 C 48.285156 -72.195312 47.585938 -71.960938 47.121094 -71.496094 L 41.550781 -64.765625 C 35.75 -56.640625 29.945312 -48.980469 23.675781 -41.320312 C 20.660156 -37.140625 16.945312 -33.195312 12.535156 -29.25 C 11.605469 -28.550781 10.679688 -28.089844 9.515625 -27.390625 C 9.285156 -27.160156 9.054688 -27.160156 8.820312 -27.160156 C 8.355469 -27.160156 7.890625 -27.390625 7.660156 -28.089844 C 6.964844 -31.105469 6.5 -34.125 6.730469 -37.140625 C 8.820312 -59.195312 13.230469 -75.675781 26.925781 -93.316406 C 27.160156 -93.550781 27.625 -94.015625 28.089844 -94.246094 C 28.320312 -94.476562 28.785156 -94.710938 29.015625 -94.941406 C 29.25 -95.175781 29.25 -95.175781 29.480469 -95.175781 C 30.175781 -95.175781 30.640625 -94.941406 30.640625 -94.246094 C 30.875 -93.78125 30.875 -93.316406 30.875 -92.621094 C 31.105469 -88.210938 30.410156 -84.03125 29.015625 -79.621094 L 27.625 -75.441406 C 27.390625 -74.746094 27.625 -74.050781 28.785156 -73.816406 C 29.015625 -73.816406 29.25 -73.816406 29.480469 -73.816406 C 29.714844 -73.585938 29.714844 -73.585938 29.945312 -73.585938 C 31.105469 -73.585938 32.265625 -74.28125 32.960938 -75.441406 C 35.980469 -80.78125 37.375 -86.816406 36.910156 -93.316406 C 36.910156 -95.175781 36.210938 -96.566406 34.820312 -97.496094 C 32.265625 -99.585938 29.480469 -100.746094 26.695312 -100.746094 C 24.605469 -100.746094 22.285156 -99.816406 20.195312 -98.191406 C 5.570312 -85.425781 -2.320312 -60.585938 -3.480469 -41.550781 C -3.480469 -36.210938 -3.480469 -32.5 -1.855469 -28.550781 C -1.394531 -26.925781 -0.464844 -25.765625 0.929688 -24.605469 C 3.480469 -22.980469 5.804688 -22.515625 8.589844 -22.285156 Z M 8.589844 -22.285156 "/></g></g></g><g fill="#421711" fill-opacity="1"><g transform="translate(572.85466, 287.185382)"><g><path d="M 24.605469 0.929688 C 26.464844 0.929688 28.320312 0.230469 30.175781 -1.394531 C 32.035156 -2.785156 33.425781 -4.410156 34.355469 -6.5 C 36.445312 -9.980469 38.070312 -13 39.695312 -16.015625 C 48.050781 -32.730469 56.175781 -49.675781 63.835938 -66.621094 L 65.230469 -69.640625 C 65.460938 -70.800781 65.230469 -71.496094 64.070312 -71.960938 C 63.605469 -72.195312 62.90625 -72.425781 61.980469 -72.425781 C 60.820312 -72.425781 59.890625 -71.960938 59.425781 -71.03125 L 58.035156 -68.480469 C 49.910156 -51.535156 42.25 -34.820312 33.195312 -18.105469 L 28.320312 -10.214844 C 28.089844 -9.515625 27.625 -8.820312 27.160156 -8.355469 C 26.695312 -7.890625 26.230469 -7.429688 25.765625 -6.730469 C 25.535156 -6.269531 25.300781 -6.035156 24.605469 -6.035156 C 24.375 -6.035156 23.910156 -6.269531 23.675781 -6.964844 C 23.445312 -7.660156 22.980469 -8.589844 22.75 -10.214844 L 21.355469 -22.050781 C 21.125 -23.675781 20.890625 -25.535156 20.890625 -27.390625 C 20.660156 -29.25 20.425781 -31.105469 20.195312 -32.960938 C 19.5 -35.980469 18.804688 -39.230469 16.945312 -42.015625 C 16.25 -43.175781 16.25 -44.105469 17.410156 -44.800781 C 25.535156 -49.445312 39 -61.28125 41.785156 -70.335938 C 42.945312 -73.816406 41.550781 -76.835938 38.070312 -77.996094 C 36.675781 -78.460938 35.285156 -78.691406 33.660156 -78.691406 C 31.800781 -78.691406 29.945312 -78.230469 28.089844 -77.300781 C 27.390625 -76.835938 26.695312 -76.371094 26 -75.90625 C 25.300781 -75.441406 24.839844 -74.980469 24.140625 -74.515625 C 22.980469 -73.355469 21.820312 -72.425781 20.890625 -71.265625 C 19.730469 -70.105469 18.570312 -69.175781 17.410156 -68.015625 L 15.320312 -65.695312 C 15.320312 -65.695312 15.089844 -65.695312 14.390625 -65.695312 C 14.160156 -65.695312 14.160156 -65.925781 14.160156 -66.15625 C 14.160156 -66.855469 20.425781 -86.351562 20.660156 -86.816406 C 21.355469 -89.140625 22.515625 -90.996094 24.375 -92.621094 C 34.125 -101.210938 53.160156 -118.621094 53.160156 -131.851562 C 53.160156 -136.261719 47.121094 -138.351562 43.640625 -138.351562 C 40.160156 -138.351562 36.910156 -136.957031 34.355469 -134.40625 C 31.800781 -131.851562 29.714844 -129.296875 27.625 -126.511719 C 17.640625 -110.726562 11.605469 -92.390625 6.269531 -74.515625 C 2.554688 -62.675781 -1.160156 -51.300781 -3.945312 -39.460938 C -5.105469 -34.125 -5.804688 -29.480469 -6.5 -24.605469 L -6.5 -22.75 C -6.5 -20.890625 -5.570312 -19.730469 -3.945312 -19.035156 C -2.785156 -18.804688 -1.855469 -18.570312 -0.695312 -18.570312 C 0 -18.804688 0.695312 -19.265625 0.929688 -19.730469 C 1.160156 -19.964844 1.625 -20.660156 1.855469 -21.589844 L 3.945312 -31.339844 C 4.644531 -34.820312 5.804688 -38.070312 7.429688 -41.085938 C 7.890625 -41.550781 8.355469 -41.785156 8.589844 -42.015625 C 9.285156 -42.25 9.980469 -42.015625 10.214844 -40.855469 C 10.445312 -40.390625 10.910156 -39.460938 11.140625 -38.300781 C 11.839844 -34.820312 12.070312 -32.035156 12.304688 -28.550781 C 12.535156 -26 12.535156 -23.675781 12.765625 -21.355469 C 12.765625 -18.804688 13 -16.480469 13.230469 -13.929688 C 13.464844 -11.375 13.929688 -8.355469 15.089844 -5.339844 C 15.785156 -2.320312 17.640625 -0.464844 21.125 0.230469 C 22.050781 0.929688 23.675781 0.929688 24.605469 0.929688 Z M 13.230469 -49.445312 C 13 -49.675781 13 -49.910156 12.765625 -50.140625 C 12.535156 -50.140625 12.535156 -50.140625 12.535156 -50.371094 L 13.230469 -51.996094 C 14.390625 -53.621094 15.554688 -55.480469 16.714844 -57.335938 C 17.875 -58.960938 19.035156 -60.820312 20.195312 -62.445312 C 23.910156 -67.78125 28.089844 -70.800781 33.425781 -74.28125 C 34.355469 -74.28125 34.820312 -73.816406 34.820312 -73.121094 C 34.820312 -72.65625 34.585938 -72.195312 34.355469 -71.496094 C 33.660156 -70.335938 33.195312 -68.945312 32.265625 -67.78125 C 27.855469 -61.050781 21.820312 -55.015625 14.625 -50.140625 C 14.390625 -49.910156 14.160156 -49.675781 13.929688 -49.675781 C 13.695312 -49.675781 13.464844 -49.675781 13.230469 -49.445312 Z M 27.855469 -104.226562 C 27.160156 -104.226562 27.160156 -104.691406 27.390625 -105.621094 C 30.410156 -113.746094 34.125 -120.710938 39 -127.90625 C 39.695312 -128.601562 40.625 -129.53125 41.320312 -130.226562 C 42.015625 -130.921875 42.710938 -131.851562 43.410156 -132.546875 C 43.875 -132.78125 44.570312 -133.246094 45.5 -133.476562 C 45.730469 -133.707031 46.660156 -133.476562 46.660156 -132.78125 C 46.890625 -132.546875 46.890625 -132.316406 46.890625 -131.621094 C 46.890625 -123.726562 34.125 -110.03125 28.785156 -104.691406 C 28.550781 -104.460938 28.550781 -104.460938 28.320312 -104.460938 C 28.089844 -104.460938 28.089844 -104.460938 27.855469 -104.226562 Z M 27.855469 -104.226562 "/></g></g></g></svg>